<mxfile host="Electron" modified="2024-03-01T00:48:02.760Z" agent="Mozilla/5.0 (X11; Linux x86_64) AppleWebKit/537.36 (KHTML, like Gecko) draw.io/23.1.5 Chrome/120.0.6099.109 Electron/28.1.0 Safari/537.36" etag="PeWTyahpqzbyRcJZOPbn" version="23.1.5" type="device">
  <diagram name="Page-1" id="a2c75fa6tXx6mwgd-DeM">
    <mxGraphModel dx="1730" dy="531" grid="1" gridSize="10" guides="1" tooltips="1" connect="1" arrows="1" fold="1" page="1" pageScale="1" pageWidth="850" pageHeight="1100" math="0" shadow="0">
      <root>
        <mxCell id="0" />
        <mxCell id="1" parent="0" />
        <mxCell id="wQJ8N1JBKENSyyK7mqMf-5" value="" style="shape=cylinder3;whiteSpace=wrap;html=1;boundedLbl=1;backgroundOutline=1;size=15;fillColor=#e1d5e7;strokeColor=#9673a6;rounded=0;sketch=1;curveFitting=1;jiggle=2;" vertex="1" parent="1">
          <mxGeometry x="720" y="240" width="60" height="80" as="geometry" />
        </mxCell>
        <mxCell id="wQJ8N1JBKENSyyK7mqMf-6" value="" style="shape=cylinder3;whiteSpace=wrap;html=1;boundedLbl=1;backgroundOutline=1;size=15;fillColor=#e1d5e7;strokeColor=#9673a6;rounded=0;sketch=1;curveFitting=1;jiggle=2;" vertex="1" parent="1">
          <mxGeometry x="770" y="240" width="60" height="80" as="geometry" />
        </mxCell>
        <mxCell id="wQJ8N1JBKENSyyK7mqMf-7" value="Mongodb database" style="shape=cylinder3;whiteSpace=wrap;html=1;boundedLbl=1;backgroundOutline=1;size=15;fillColor=#e1d5e7;strokeColor=#9673a6;rounded=0;sketch=1;curveFitting=1;jiggle=2;" vertex="1" parent="1">
          <mxGeometry x="740" y="260" width="60" height="80" as="geometry" />
        </mxCell>
        <mxCell id="wQJ8N1JBKENSyyK7mqMf-14" style="edgeStyle=orthogonalEdgeStyle;rounded=0;orthogonalLoop=1;jettySize=auto;html=1;entryX=1;entryY=0.5;entryDx=0;entryDy=0;sketch=1;curveFitting=1;jiggle=2;" edge="1" parent="1" source="wQJ8N1JBKENSyyK7mqMf-2" target="wQJ8N1JBKENSyyK7mqMf-4">
          <mxGeometry relative="1" as="geometry" />
        </mxCell>
        <mxCell id="wQJ8N1JBKENSyyK7mqMf-16" style="edgeStyle=orthogonalEdgeStyle;rounded=0;orthogonalLoop=1;jettySize=auto;html=1;sketch=1;curveFitting=1;jiggle=2;" edge="1" parent="1" source="wQJ8N1JBKENSyyK7mqMf-2" target="wQJ8N1JBKENSyyK7mqMf-8">
          <mxGeometry relative="1" as="geometry">
            <Array as="points" />
          </mxGeometry>
        </mxCell>
        <mxCell id="wQJ8N1JBKENSyyK7mqMf-2" value="Express Backend" style="rounded=0;whiteSpace=wrap;html=1;fillColor=#ffe6cc;strokeColor=#d79b00;sketch=1;curveFitting=1;jiggle=2;" vertex="1" parent="1">
          <mxGeometry x="320" y="240" width="245" height="120" as="geometry" />
        </mxCell>
        <mxCell id="wQJ8N1JBKENSyyK7mqMf-15" style="edgeStyle=orthogonalEdgeStyle;rounded=0;orthogonalLoop=1;jettySize=auto;html=1;sketch=1;curveFitting=1;jiggle=2;" edge="1" parent="1" source="wQJ8N1JBKENSyyK7mqMf-4" target="wQJ8N1JBKENSyyK7mqMf-2">
          <mxGeometry relative="1" as="geometry" />
        </mxCell>
        <mxCell id="wQJ8N1JBKENSyyK7mqMf-4" value="Vue Frontend" style="rounded=0;whiteSpace=wrap;html=1;fillColor=#d5e8d4;strokeColor=#82b366;sketch=1;curveFitting=1;jiggle=2;" vertex="1" parent="1">
          <mxGeometry x="-50" y="240" width="235" height="120" as="geometry" />
        </mxCell>
        <mxCell id="wQJ8N1JBKENSyyK7mqMf-12" style="edgeStyle=orthogonalEdgeStyle;rounded=0;orthogonalLoop=1;jettySize=auto;html=1;entryX=1;entryY=0.5;entryDx=0;entryDy=0;sketch=1;curveFitting=1;jiggle=2;" edge="1" parent="1" source="wQJ8N1JBKENSyyK7mqMf-7" target="wQJ8N1JBKENSyyK7mqMf-2">
          <mxGeometry relative="1" as="geometry" />
        </mxCell>
        <mxCell id="wQJ8N1JBKENSyyK7mqMf-17" style="edgeStyle=orthogonalEdgeStyle;rounded=0;orthogonalLoop=1;jettySize=auto;html=1;sketch=1;curveFitting=1;jiggle=2;" edge="1" parent="1" source="wQJ8N1JBKENSyyK7mqMf-8" target="wQJ8N1JBKENSyyK7mqMf-2">
          <mxGeometry relative="1" as="geometry" />
        </mxCell>
        <mxCell id="wQJ8N1JBKENSyyK7mqMf-8" value="Mealdb API" style="ellipse;shape=cloud;whiteSpace=wrap;html=1;fillColor=#dae8fc;strokeColor=#6c8ebf;rounded=0;sketch=1;curveFitting=1;jiggle=2;" vertex="1" parent="1">
          <mxGeometry x="382.5" y="20" width="120" height="80" as="geometry" />
        </mxCell>
        <mxCell id="wQJ8N1JBKENSyyK7mqMf-19" style="edgeStyle=orthogonalEdgeStyle;rounded=0;orthogonalLoop=1;jettySize=auto;html=1;sketch=1;curveFitting=1;jiggle=2;" edge="1" parent="1" source="wQJ8N1JBKENSyyK7mqMf-9" target="wQJ8N1JBKENSyyK7mqMf-4">
          <mxGeometry relative="1" as="geometry" />
        </mxCell>
        <mxCell id="wQJ8N1JBKENSyyK7mqMf-9" value="Edamam Nutrition API" style="ellipse;shape=cloud;whiteSpace=wrap;html=1;fillColor=#dae8fc;strokeColor=#6c8ebf;rounded=0;sketch=1;curveFitting=1;jiggle=2;" vertex="1" parent="1">
          <mxGeometry x="7.5" width="120" height="80" as="geometry" />
        </mxCell>
        <mxCell id="wQJ8N1JBKENSyyK7mqMf-13" style="edgeStyle=orthogonalEdgeStyle;rounded=0;orthogonalLoop=1;jettySize=auto;html=1;entryX=0;entryY=0.5;entryDx=0;entryDy=0;entryPerimeter=0;sketch=1;curveFitting=1;jiggle=2;" edge="1" parent="1" source="wQJ8N1JBKENSyyK7mqMf-2" target="wQJ8N1JBKENSyyK7mqMf-7">
          <mxGeometry relative="1" as="geometry" />
        </mxCell>
        <mxCell id="wQJ8N1JBKENSyyK7mqMf-18" style="edgeStyle=orthogonalEdgeStyle;rounded=0;orthogonalLoop=1;jettySize=auto;html=1;entryX=0.5;entryY=1;entryDx=0;entryDy=0;entryPerimeter=0;sketch=1;curveFitting=1;jiggle=2;" edge="1" parent="1" source="wQJ8N1JBKENSyyK7mqMf-4" target="wQJ8N1JBKENSyyK7mqMf-9">
          <mxGeometry relative="1" as="geometry" />
        </mxCell>
      </root>
    </mxGraphModel>
  </diagram>
</mxfile>
